<svg width="907" height="818" viewBox="0 0 907 818" fill="none" xmlns="http://www.w3.org/2000/svg">
<path d="M702.186 459.735C646.261 538.356 574.537 604.908 492.127 654.647C491.428 655.055 490.665 655.326 489.882 655.446C489.099 655.565 488.312 655.531 487.564 655.345C486.817 655.158 486.125 654.824 485.527 654.359C484.929 653.895 484.437 653.311 484.079 652.64C483.721 651.969 483.505 651.223 483.442 650.447C483.379 649.671 483.471 648.879 483.713 648.116C483.954 647.353 484.341 646.635 484.85 646.001C485.359 645.368 485.981 644.832 486.68 644.424C567.172 595.842 637.257 530.884 691.968 454.152C696.533 447.76 706.755 453.207 702.186 459.735Z" fill="#501706"/>
<path d="M716.641 360.271C647.93 496.416 531.539 604.865 391.313 663.4C384.031 666.373 381.47 654.962 388.687 651.924C525.776 594.405 639.435 488.081 706.353 354.759C709.928 347.658 720.146 353.24 716.641 360.271Z" fill="#501706"/>
<path d="M716.984 280.405C653.522 407.981 559.676 531.861 432.655 602.34C392.172 624.886 348.818 641.087 304.222 650.336C296.654 651.898 294.102 640.216 301.596 638.86C452.154 607.652 571.552 495.697 654.042 367.765C673.354 337.75 690.936 306.738 706.696 274.892C710.271 267.792 720.423 273.309 716.984 280.405Z" fill="#501706"/>
<path d="M704.022 205.355C653.889 362.695 540.512 504.409 389.439 577.525C339.662 601.455 287.154 618.147 233.61 627.061C226.051 628.352 223.359 616.811 231.054 615.515C320.293 600.92 405.984 563.996 480.008 508.24C546.175 457.164 601.406 393.02 641.834 320.298C662.919 282.795 680.056 243.418 692.948 202.849C695.388 195.317 706.864 197.943 704.494 205.406L704.022 205.355Z" fill="#501706"/>
<path d="M679.975 135.515C653.31 322.925 517.867 485.136 339.883 553.955C282.24 576.245 222.108 589.582 161.681 593.48C153.951 593.898 154.386 581.971 162.121 581.419C262.679 575.752 361.692 542.062 447.929 484.168C523.908 431.805 585.22 360.225 624.919 277.537C646.463 232.341 660.952 184.534 667.847 135.89C668.937 128.271 680.934 127.765 679.844 135.384L679.975 135.515Z" fill="#501706"/>
<path d="M509.378 400.652C458.689 455.043 396.521 497.371 328.116 524.067C253.213 552.267 173.918 562.448 96.9471 553.75C89.3973 552.942 92.9346 541.309 100.419 542.051C246.119 556.835 395.794 505.357 501.216 392.491C506.835 386.872 514.801 394.838 509.378 400.652Z" fill="#501706"/>
<path d="M642.493 62.9167C642.486 139.388 624.021 216.079 588.658 286.507C585.083 293.608 574.935 287.955 578.44 280.925C612.71 212.264 630.501 137.546 630.306 63.0907C630.317 55.3756 642.243 54.9406 642.232 62.6556L642.493 62.9167Z" fill="#501706"/>
<path d="M592.023 -7.92188C613.188 103.845 591.58 224.954 523.003 323.957C490.312 370.932 448.607 411.231 400.582 442.252C352.557 473.273 299.279 494.327 244.188 504.053C173.195 515.798 101.632 511.468 34.8658 491.388C27.7018 489.281 31.1086 477.517 38.3379 479.689C149.629 512.037 273.552 504.2 379.967 442.052C426.89 414.163 468.264 377.314 501.517 333.794C534.771 290.274 559.193 241.015 573.264 189.08C590.381 124.904 592.819 58.7237 580.39 -4.38448C578.97 -11.8443 590.669 -15.3165 592.089 -7.85663L592.023 -7.92188Z" fill="#501706"/>
<path d="M518.974 -88.6968C549.543 -35.8151 565.06 25.2057 563.972 88.2562C562.883 151.307 545.227 214.174 512.77 270.564C480.314 326.955 434.197 374.889 379.036 409.567C323.876 444.246 261.607 464.452 198.465 468.163C110.747 474.138 25.9486 450.163 -47.9061 410.02C-49.1003 409.199 -49.9124 407.938 -50.1839 406.485C-50.4554 405.031 -50.1671 403.489 -49.3748 402.159C-48.5826 400.828 -47.3434 399.805 -45.899 399.289C-44.4546 398.773 -42.9085 398.801 -41.5624 399.367C77.7677 463.634 226.316 481.967 356.327 409.281C409.243 379.482 454.748 337.336 488.636 286.742C522.525 236.147 543.702 178.735 550.211 119.812C556.931 48.2586 542.328 -22.1299 508.256 -82.4184C507.654 -83.776 507.608 -85.3493 508.126 -86.8213C508.644 -88.2933 509.688 -89.5545 511.047 -90.3507C512.406 -91.1469 513.98 -91.4191 515.451 -91.1121C516.922 -90.8052 518.181 -89.9421 518.974 -88.6968Z" fill="#501706"/>
<path d="M-72.7848 325.864C-8.96465 383.222 71.4271 425.968 161.78 427.544C234.016 428.244 306.052 403.408 365.258 357.389C422.861 312.846 466.581 252.572 490.455 184.792C515.298 115.334 515.152 41.0809 490.042 -24.6388C461.928 -96.1578 404.487 -144.749 343.255 -187.72C333.325 -194.283 324.663 -202.518 317.617 -212.094C313.307 -218.23 323.955 -224.439 328.27 -218.438C338.87 -205.961 351.446 -195.327 365.558 -186.909C379.005 -177.114 392.102 -166.967 404.842 -156.334C423.842 -140.589 441.47 -123.289 457.566 -104.593C471.708 -87.5977 483.588 -68.7825 492.945 -48.5654C523.732 17.2142 529.154 93.5708 508.234 166.751C487.804 237.845 446.389 302.511 389.615 351.966C331.841 402.699 259.792 433.257 185.538 438.52C96.9516 444.188 14.6725 410.512 -52.0105 359.28C-62.3451 351.334 -72.2583 342.966 -81.9559 334.251C-87.2444 328.963 -78.6807 320.53 -73.1766 325.472L-72.7848 325.864Z" fill="#501706"/>
<path d="M-58.4774 274.994C29.0601 359.301 154.134 416.388 281.924 367.468C329.763 348.571 372.474 317.312 405.451 277.064C438.427 236.816 460.416 189.106 469.046 139.082C478.496 79.1798 467.407 19.3301 437.609 -30.5754C433.851 -37.0025 444.504 -43.3463 448.262 -36.9192C474.781 8.33007 486.889 61.3332 483.094 115.566C479.3 169.799 459.77 222.894 426.908 268.317C394.075 313.951 349.466 350.114 298.4 372.495C247.333 394.875 191.964 402.529 138.892 394.544C58.4674 382.387 -10.9023 338.021 -67.2567 283.774C-68.1146 282.645 -68.5074 281.211 -68.3613 279.741C-68.2152 278.271 -67.5403 276.865 -66.4631 275.788C-65.3859 274.711 -63.9804 274.036 -62.5102 273.89C-61.0401 273.744 -59.6062 274.136 -58.4774 274.994Z" fill="#501706"/>
<path d="M219.64 -230.987C266.352 -140.589 366.135 -96.9939 420.157 -12.209C444.457 24.2511 455.157 68.7428 450.535 114.109C444.816 158.051 427.646 200.54 400.77 237.261C359.546 295.068 299.599 343.002 230.357 356.356C165.963 368.517 105.931 352.03 51.2524 324.181C-34.1289 280.94 -102.388 211.698 -154.319 132.657C-158.423 126.445 -147.77 120.101 -143.666 126.313C-98.5785 197.593 -37.9291 257.188 34.163 301.051C83.5212 330.042 139.552 352.36 199.383 348.417C265.513 344.313 322.927 310.142 368.366 259.219C431.939 187.941 461.921 89.5352 417.267 7.65674C366.126 -85.6247 258.086 -129.189 208.907 -224.302C208.341 -225.648 208.313 -227.194 208.829 -228.638C209.345 -230.083 210.368 -231.322 211.698 -232.114C213.029 -232.906 214.571 -233.195 216.025 -232.923C217.478 -232.652 218.739 -231.84 219.56 -230.645L219.64 -230.987Z" fill="#501706"/>
<path d="M43.6798 273.907C-33.3773 215.813 -95.4964 139.647 -155.526 65.5704C-160.122 59.8506 -151.408 51.006 -146.747 56.791C-86.3907 131.194 -24.598 207.034 52.4591 265.127C58.3194 269.583 49.4748 278.297 43.6798 273.907Z" fill="#501706"/>
<path d="M177.57 -233.444C174.405 -174.521 218.139 -132.333 261.645 -102.452C307.843 -70.3018 358.816 -42.9269 385.599 9.42172C407.083 51.3827 412.513 100.668 400.938 148.632C389.363 196.596 361.522 240.176 322.298 271.728C300.998 288.932 276.775 301.942 251.053 309.992C225.331 318.043 198.63 320.972 172.521 318.607C164.836 317.805 168.443 306.101 175.928 306.843C274.076 317.338 372.334 237.623 391.179 140.299C400.288 92.5498 392.204 44.3564 368.39 4.43274C337.682 -46.0809 281.465 -70.6928 235.973 -105.508C196.533 -135.537 162.587 -178.895 165.152 -232.517C165.57 -240.247 177.561 -240.617 177.078 -232.952L177.57 -233.444Z" fill="#501706"/>
<path d="M139.159 -217.493C137.181 -163.283 171.403 -121.898 210.487 -91.3829C233.12 -73.6665 257.664 -58.2529 280.863 -41.2338C302.803 -27.2729 322.946 -10.8043 340.924 7.8706C395.572 71.7897 372.087 173.884 312.087 234.407C258.709 287.785 179.724 291.817 116.089 270.182C98.227 263.428 81.6519 253.999 66.8974 242.201C32.7184 215.326 1.90911 184.517 -24.966 150.338C-64.3609 102.374 -103.756 54.4105 -144.27 7.43525C-149.493 2.21203 -140.428 -6.98375 -135.49 -1.34406C-106.665 32.1171 -78.471 66.2105 -50.2071 100.234C-4.31779 155.675 41.2156 220.874 107.823 253.769C158.675 278.915 229.385 279.11 280.822 245.563C354.563 197.938 387.09 81.7086 331.934 16.8606C312.667 -5.91872 286.059 -22.2721 261.775 -39.2517C237.491 -56.2312 213.359 -71.7951 191.102 -90.5404C154.14 -121.742 124.511 -164.716 126.816 -216.772C127.164 -224.432 139.16 -224.937 138.808 -217.142L139.159 -217.493Z" fill="#501706"/>
<path d="M97.1229 -222.727C101.177 -135.375 161.656 -75.4582 228.857 -31.013C264.87 -7.22046 310.343 11.4222 330.027 52.4579C336.638 67.6268 339.781 84.2877 339.243 101.301C338.704 118.315 334.495 135.28 326.904 151.035C297.872 215.976 220.355 259.543 153.46 241.953C120.15 233.085 91.366 211.465 65.8949 189.927C44.2836 171.382 23.9034 151.47 4.86427 130.301C-44.8395 75.5401 -95.5109 13.9121 -120.438 -57.7908C-122.886 -64.8747 -111.188 -68.3466 -108.739 -61.2627C-87.1957 1.15719 -43.7713 55.5377 -1.56501 104.346C36.2916 148.102 78.9579 193.578 131.055 219.829C146.323 227.21 163.127 231.38 180.496 232.099C197.865 232.817 215.456 230.069 232.254 224.015C249.053 217.96 264.726 208.718 278.369 196.821C292.013 184.925 303.357 170.609 311.747 154.701C329.97 120.809 333.585 79.194 313.525 48.4582C289.878 12.1688 243.89 -5.3048 209.241 -29.4178C143.58 -75.2727 88.9689 -136.486 85.0611 -222.287C84.6653 -229.987 96.6569 -230.357 97.0577 -222.793L97.1229 -222.727Z" fill="#501706"/>
<path d="M54.9905 -219.769C67.2774 -173.523 84.4563 -129.04 106.249 -87.0387C117.684 -66.2571 132.072 -47.3779 149.001 -30.9415C166.689 -15.2723 186.44 -2.03373 207.792 8.46432C240.78 26.1414 275.296 46.4697 287.519 84.2585C292.312 100.625 291.4 118.521 284.926 135.135C278.453 151.748 266.785 166.138 251.756 176.041C214.721 202.498 168.223 198.984 131.511 181.375C124.727 178.104 131.352 167.17 137.789 170.657C171.042 186.633 213.088 189.768 246.173 165.823C254.164 160.42 261.058 153.486 266.414 145.466C271.77 137.446 275.472 128.516 277.281 119.247C279.091 109.978 278.968 100.573 276.922 91.6341C274.876 82.6955 270.951 74.4196 265.399 67.3354C242.19 33.8723 200.42 21.3202 167.58 -0.422652C135.882 -22.4111 110.211 -51.7831 92.5508 -86.2683C71.931 -127.651 55.4375 -171.189 43.292 -216.297C41.1195 -223.526 52.8181 -226.998 54.9905 -219.769Z" fill="#501706"/>
<path d="M17.0113 21.7848C-22.7784 -32.0518 -43.2989 -96.5393 -67.0058 -159.016C-69.6649 -165.889 -59.0774 -172.298 -56.4232 -165.289C-33.0784 -104.018 -13.5766 -39.4254 26.1171 13.3319C30.5727 19.1922 21.8587 28.0368 17.3378 22.1113L17.0113 21.7848Z" fill="#501706"/>
<path d="M13.9523 -198.58C28.668 -127.653 61.4401 -62.9369 109.207 -10.4747C132.976 15.5162 160.246 38.0642 190.335 56.6064C214.161 71.3018 248.635 89.0601 240.458 124.007C232.28 158.953 190.939 158.769 165.696 149.539C158.682 147.021 162.019 135.327 169.098 137.911C184.732 143.431 209.155 149.172 222.915 133.715C242.745 111.404 217.167 87.2305 200.878 77.4033C167.209 57.7166 136.255 33.9762 108.65 6.66684C55.1192 -48.618 18.4334 -118.331 2.39422 -195.248C0.904326 -202.638 12.5377 -206.175 14.0929 -198.72L13.9523 -198.58Z" fill="#501706"/>
<path d="M-14.9352 -180.269C10.8677 -58.3851 89.703 38.1494 189.484 105.903C195.56 110.013 189.352 120.661 183.21 116.486C80.8534 46.999 -0.201863 -51.7554 -26.634 -176.797C-26.7764 -178.248 -26.3782 -179.741 -25.5146 -180.994C-24.651 -182.247 -23.3814 -183.173 -21.9443 -183.6C-20.5073 -184.026 -19.0019 -183.923 -17.7111 -183.31C-16.4204 -182.696 -15.4332 -181.615 -14.9352 -180.269Z" fill="#501706"/>
<path d="M-92.2773 -109.978C-47.0317 33.5959 92.2124 154.86 93.6587 156.025L100.225 148.545C98.9193 147.239 -38.5619 27.7377 -83.0132 -113.497L-92.2773 -109.978Z" fill="#501706"/>
<path d="M146.135 140.373C102.344 119.308 64.6699 88.1661 35.9703 49.3125C31.585 43.382 42.233 37.1738 46.6886 43.0341C74.269 80.1269 110.456 109.779 152.478 129.72C159.196 132.926 152.572 143.86 146.135 140.373Z" fill="#501706"/>
<path d="M117.316 173.501L112.098 169.97C111.42 169.577 110.859 169.016 110.466 168.338C109.978 167.753 109.655 167.043 109.526 166.274C109.329 165.556 109.334 164.785 109.54 164.04C109.543 163.263 109.81 162.49 110.297 161.847L111.491 160.653C112.265 159.887 113.223 159.336 114.256 159.064L115.822 158.803C116.845 158.737 117.845 158.958 118.708 159.442L123.925 162.974C124.602 163.37 125.161 163.93 125.558 164.606C126.046 165.191 126.369 165.901 126.498 166.67C126.72 167.403 126.737 168.197 126.549 168.969C126.462 169.736 126.203 170.485 125.792 171.162L124.598 172.356C123.828 173.106 122.902 173.673 121.899 174.011L120.333 174.271C119.284 174.311 118.264 174.067 117.381 173.567L117.316 173.501Z" fill="#501706"/>
<path d="M149.863 318.282C123.671 317.513 98.3212 311.294 75.4131 300.02C74.7066 299.655 74.0893 299.148 73.5965 298.53C73.1037 297.911 72.7449 297.192 72.5408 296.414C72.3367 295.636 72.2912 294.814 72.4068 293.995C72.5225 293.176 72.7971 292.376 73.2149 291.641C73.6328 290.906 74.1857 290.25 74.8421 289.711C75.4985 289.171 76.2455 288.759 77.0405 288.498C77.8356 288.236 78.663 288.131 79.4756 288.187C80.2882 288.243 81.0702 288.46 81.7767 288.825C102.784 299.27 126.052 305.08 150.112 305.889C157.817 306.15 157.447 318.141 149.742 317.881L149.863 318.282Z" fill="#501706"/>
<path d="M576.659 309.344C562.807 334.112 546.53 357.565 528.089 379.33C527.539 380.026 526.856 380.608 526.084 381.037C525.312 381.466 524.47 381.732 523.612 381.817C522.755 381.902 521.903 381.805 521.112 381.531C520.322 381.257 519.611 380.814 519.027 380.23C518.443 379.646 518 378.936 517.726 378.145C517.453 377.354 517.355 376.502 517.44 375.645C517.526 374.788 517.792 373.945 518.22 373.173C518.649 372.402 519.231 371.718 519.928 371.169C537.59 350.228 553.155 327.661 566.371 303.832C570.147 296.792 580.626 302.635 576.659 309.344Z" fill="#501706"/>
<path d="M429.4 678.59L458.396 666.569C459.862 666.321 461.33 666.611 462.523 667.385C463.716 668.159 464.552 669.365 464.875 670.775C465.197 672.184 464.984 673.701 464.275 675.04C463.565 676.379 462.409 677.448 461.023 678.046L432.026 690.066C430.561 690.315 429.093 690.025 427.9 689.251C426.707 688.476 425.87 687.271 425.548 685.861C425.225 684.452 425.439 682.935 426.148 681.596C426.857 680.257 428.014 679.188 429.4 678.59Z" fill="#501706"/>
</svg>
