<svg width="947" height="832" viewBox="0 0 947 832" fill="none" xmlns="http://www.w3.org/2000/svg">
    <path d="M359.618 205.649C280.707 261.779 213.911 333.767 163.989 416.481C163.579 417.183 163.307 417.948 163.187 418.734C163.067 419.52 163.101 420.31 163.288 421.06C163.475 421.81 163.811 422.505 164.277 423.105C164.743 423.706 165.329 424.199 166.003 424.558C166.677 424.917 167.425 425.134 168.204 425.197C168.983 425.26 169.778 425.168 170.543 424.926C171.309 424.683 172.03 424.296 172.666 423.785C173.302 423.274 173.84 422.65 174.249 421.948C223.009 341.16 288.207 270.817 365.221 215.904C371.637 211.323 366.17 201.063 359.618 205.649Z" fill="#FF725E"/>
    <path d="M459.448 191.14C322.802 260.104 213.953 376.924 155.203 517.665C152.22 524.974 163.672 527.545 166.721 520.302C224.452 382.708 331.167 268.631 464.98 201.466C472.107 197.878 466.504 187.623 459.448 191.14Z" fill="#FF725E"/>
    <path d="M539.607 190.797C411.562 254.491 287.226 348.683 216.488 476.171C193.859 516.804 177.598 560.317 168.315 605.077C166.748 612.673 178.473 615.234 179.834 607.713C211.157 456.6 323.523 336.763 451.926 253.97C482.051 234.587 513.178 216.94 545.14 201.123C552.267 197.534 546.729 187.344 539.607 190.797Z" fill="#FF725E"/>
    <path d="M614.933 203.806C457.014 254.123 314.779 367.918 241.394 519.546C217.376 569.506 200.622 622.208 191.676 675.949C190.38 683.535 201.964 686.237 203.264 678.514C217.913 588.947 254.973 502.941 310.934 428.644C362.198 362.233 426.578 306.8 499.567 266.223C537.208 245.06 576.73 227.86 617.448 214.921C625.008 212.472 622.372 200.953 614.882 203.332L614.933 203.806Z" fill="#FF725E"/>
    <path d="M685.03 227.942C496.931 254.705 334.123 390.646 265.05 569.285C242.678 627.14 229.292 687.493 225.38 748.142C224.961 755.901 236.931 755.464 237.486 747.701C243.173 646.773 276.988 547.396 335.094 460.841C387.65 384.583 459.494 323.046 542.485 283.2C587.848 261.577 635.83 247.035 684.654 240.114C692.301 239.02 692.808 226.979 685.161 228.073L685.03 227.942Z" fill="#FF725E"/>
    <path d="M418.917 399.166C364.327 450.041 321.843 512.438 295.048 581.095C266.745 656.273 256.526 735.86 265.257 813.114C266.067 820.692 277.743 817.141 276.998 809.629C262.161 663.393 313.828 513.168 427.109 407.358C432.748 401.718 424.753 393.723 418.917 399.166Z" fill="#FF725E"/>
    <path d="M757.895 265.561C681.143 265.568 604.17 284.102 533.482 319.595C526.356 323.183 532.029 333.368 539.085 329.85C607.999 295.454 682.991 277.598 757.721 277.793C765.464 277.783 765.901 265.812 758.157 265.823L757.895 265.561Z" fill="#FF725E"/>
    <path d="M828.995 316.217C716.817 294.975 595.262 316.661 495.895 385.491C448.747 418.302 408.3 460.16 377.165 508.362C346.03 556.564 324.899 610.038 315.136 665.332C303.348 736.585 307.694 808.412 327.848 875.424C329.963 882.614 341.77 879.195 339.59 871.939C307.123 760.238 314.989 635.859 377.365 529.053C405.357 481.958 442.342 440.431 486.022 407.055C529.701 373.68 579.142 349.168 631.268 335.045C695.68 317.865 762.104 315.419 825.444 327.893C832.932 329.318 836.416 317.576 828.929 316.151L828.995 316.217Z" fill="#FF725E"/>
    <path d="M910.066 389.535C856.99 358.853 795.745 343.279 732.463 344.372C669.18 345.464 606.081 363.186 549.484 395.761C492.886 428.337 444.776 474.624 409.97 529.987C375.163 585.351 354.883 647.848 351.158 711.223C345.161 799.264 369.225 884.374 409.515 958.5C410.339 959.699 411.604 960.514 413.063 960.786C414.522 961.059 416.07 960.769 417.405 959.974C418.741 959.179 419.767 957.935 420.285 956.486C420.803 955.036 420.775 953.484 420.207 952.133C355.704 832.364 337.303 683.269 410.256 552.78C440.166 499.669 482.466 453.997 533.247 419.984C584.028 385.971 641.651 364.716 700.791 358.183C772.607 351.438 843.255 366.095 903.765 400.292C905.128 400.896 906.707 400.943 908.184 400.423C909.661 399.903 910.927 398.855 911.726 397.491C912.526 396.127 912.799 394.547 912.491 393.071C912.183 391.594 911.316 390.331 910.066 389.535Z" fill="#FF725E"/>
    <path d="M493.981 983.471C436.411 919.416 393.508 838.728 391.926 748.043C391.224 675.541 416.152 603.24 462.339 543.817C507.047 486.002 567.542 442.12 635.572 418.159C705.285 393.225 779.811 393.372 845.773 418.574C917.555 446.791 966.325 504.443 1009.45 565.9C1016.04 575.867 1024.31 584.56 1033.92 591.633C1040.08 595.959 1046.31 585.272 1040.28 580.941C1027.76 570.301 1017.09 557.68 1008.64 543.516C998.809 530.019 988.625 516.874 977.952 504.087C962.149 485.017 944.786 467.324 926.021 451.169C908.963 436.975 890.079 425.051 869.787 415.66C803.766 384.759 727.128 379.318 653.679 400.315C582.323 420.82 517.42 462.387 467.782 519.37C416.863 577.356 386.193 649.67 380.91 724.197C375.221 813.11 409.022 895.692 460.441 962.62C468.417 972.992 476.816 982.942 485.562 992.675C490.87 997.983 499.334 989.388 494.374 983.864L493.981 983.471Z" fill="#FF725E"/>
    <path d="M1053.41 645.666C1036.45 637.152 1021.08 626.01 1007.82 612.622C1000.13 603.665 993.141 594.139 985.73 585.036C971.765 567.547 957.73 550.127 943.483 532.92C933.566 519.881 922.836 507.504 911.35 495.852C910.217 494.991 908.778 494.597 907.302 494.744C905.827 494.89 904.416 495.568 903.335 496.649C902.254 497.73 901.577 499.141 901.43 500.616C901.283 502.092 901.677 503.531 902.538 504.664C914.025 516.315 924.755 528.693 934.671 541.731C949.285 559.446 963.757 577.302 978.089 595.299C985.368 604.271 992.215 613.938 999.848 622.557C1013.89 635.988 1029.9 647.246 1047.39 656.006C1053.78 659.848 1060.14 649.156 1053.63 645.318L1053.41 645.666Z" fill="#FF725E"/>
    <path d="M545.038 969.111C460.421 881.251 403.124 755.717 452.224 627.457C471.191 579.442 502.565 536.574 542.961 503.476C583.357 470.378 631.242 448.308 681.449 439.647C741.572 430.162 801.642 441.292 851.731 471.199C858.182 474.971 864.549 464.279 858.098 460.507C812.683 433.89 759.485 421.738 705.052 425.547C650.62 429.355 597.329 448.956 551.739 481.939C505.937 514.893 469.641 559.666 447.179 610.921C424.716 662.175 417.034 717.748 425.048 771.015C437.25 851.736 481.779 921.36 536.226 977.922C537.359 978.783 538.798 979.177 540.274 979.031C541.749 978.884 543.16 978.207 544.241 977.126C545.322 976.044 546 974.634 546.146 973.158C546.293 971.683 545.899 970.243 545.038 969.111Z" fill="#FF725E"/>
    <path d="M1052.88 689.97C962.15 643.086 918.394 542.937 833.297 488.716C796.703 464.326 752.048 453.587 706.514 458.226C662.411 463.966 619.765 481.199 582.909 508.174C524.89 549.549 476.78 609.717 463.377 679.213C451.171 743.844 467.719 804.098 495.67 858.977C539.07 944.673 608.567 1013.18 687.899 1065.3C694.133 1069.42 700.5 1058.73 694.266 1054.61C622.724 1009.36 562.909 948.487 518.885 876.129C489.788 826.59 467.388 770.353 471.344 710.302C475.464 643.929 509.761 586.303 560.871 540.697C632.411 476.89 731.179 446.798 813.359 491.616C906.983 542.945 950.708 651.382 1046.17 700.742C1047.52 701.311 1049.07 701.339 1050.52 700.821C1051.97 700.303 1053.22 699.276 1054.01 697.941C1054.81 696.606 1055.1 695.058 1054.82 693.599C1054.55 692.14 1053.74 690.875 1052.54 690.05L1052.88 689.97Z" fill="#FF725E"/>
    <path d="M1055.35 732.195C996.207 735.371 953.863 691.477 923.873 647.811C891.604 601.443 864.128 550.282 811.587 523.4C769.472 501.838 720.005 496.387 671.865 508.005C623.724 519.623 579.984 547.566 548.316 586.934C531.049 608.313 517.991 632.625 509.911 658.442C501.83 684.259 498.89 711.058 501.264 737.262C502.07 744.976 513.816 741.355 513.072 733.843C502.538 635.334 582.547 536.714 680.228 517.801C728.153 508.658 776.524 516.771 816.594 540.673C867.294 571.494 891.996 627.918 926.94 673.577C957.079 713.162 1000.6 747.233 1054.42 744.658C1062.17 744.24 1062.55 732.204 1054.85 732.688L1055.35 732.195Z" fill="#FF725E"/>
    <path d="M1039.34 770.747C984.928 772.732 943.39 738.385 912.763 699.157C894.981 676.441 879.511 651.807 862.429 628.521C848.417 606.501 831.888 586.284 813.144 568.24C748.99 513.39 646.52 536.962 585.775 597.183C532.2 650.757 528.153 730.033 549.867 793.902C556.647 811.83 566.11 828.466 577.952 843.275C604.926 877.579 635.848 908.502 670.153 935.476C718.293 975.016 766.433 1014.56 813.581 1055.22C818.823 1060.46 828.053 1051.36 822.393 1046.41C788.808 1017.47 754.589 989.178 720.441 960.81C664.796 914.752 599.357 869.051 566.341 802.198C541.103 751.159 540.907 680.189 574.578 628.563C622.377 554.551 739.034 521.904 804.121 577.263C826.984 596.601 843.398 623.307 860.44 647.68C877.482 672.053 893.103 696.274 911.917 718.613C943.234 755.71 986.366 785.449 1038.61 783.135C1046.3 782.787 1046.81 770.746 1038.98 771.1L1039.34 770.747Z" fill="#FF725E"/>
    <path d="M1044.59 812.938C956.917 808.869 896.78 748.168 852.171 680.719C828.291 644.573 809.58 598.934 768.393 579.177C753.168 572.542 736.446 569.386 719.37 569.927C702.294 570.468 685.267 574.692 669.454 582.311C604.273 611.45 560.546 689.253 578.201 756.394C587.102 789.826 608.801 818.716 630.419 844.28C649.032 865.971 669.016 886.426 690.264 905.536C745.226 955.422 807.081 1006.28 879.047 1031.3C886.157 1033.76 889.642 1022.01 882.532 1019.56C819.882 997.934 765.302 954.35 716.314 911.989C672.397 873.993 626.754 831.169 600.406 778.88C592.998 763.556 588.813 746.691 588.092 729.258C587.371 711.825 590.128 694.169 596.205 677.309C602.282 660.449 611.558 644.718 623.499 631.024C635.439 617.331 649.807 605.945 665.774 597.524C699.791 579.234 741.559 575.605 772.407 595.739C808.83 619.473 826.368 665.631 850.57 700.407C896.593 766.309 958.032 821.122 1044.15 825.044C1051.88 825.441 1052.25 813.405 1044.66 813.003L1044.59 812.938Z" fill="#FF725E"/>
    <path d="M1041.62 855.225C995.205 842.893 950.558 825.651 908.402 803.779C887.544 792.301 868.596 777.86 852.099 760.869C836.372 743.116 823.085 723.292 812.548 701.862C794.806 668.752 774.403 634.11 736.475 621.841C720.049 617.031 702.087 617.946 685.412 624.444C668.737 630.941 654.295 642.652 644.355 657.736C617.8 694.907 621.328 741.576 639.001 778.424C642.285 785.232 653.259 778.583 649.759 772.122C633.725 738.746 630.578 696.546 654.61 663.339C660.034 655.319 666.993 648.4 675.042 643.024C683.092 637.648 692.055 633.933 701.358 632.117C710.662 630.301 720.101 630.424 729.072 632.477C738.044 634.531 746.35 638.47 753.46 644.043C787.047 667.337 799.645 709.261 821.468 742.221C843.537 774.036 873.017 799.802 907.629 817.527C949.164 838.222 992.862 854.777 1038.14 866.967C1045.39 869.147 1048.88 857.406 1041.62 855.225Z" fill="#FF725E"/>
    <path d="M799.179 893.344C853.213 933.28 917.938 953.876 980.644 977.67C987.542 980.339 993.975 969.713 986.94 967.049C925.444 943.618 860.614 924.044 807.662 884.205C801.781 879.733 792.903 888.479 798.851 893.016L799.179 893.344Z" fill="#FF725E"/>
    <path d="M1020.35 896.415C949.166 881.645 884.212 848.752 831.557 800.809C805.47 776.953 782.839 749.583 764.229 719.383C749.479 695.469 731.656 660.868 696.581 669.076C661.506 677.283 661.69 718.776 670.954 744.113C673.482 751.152 685.218 747.803 682.625 740.698C677.084 725.007 671.323 700.494 686.837 686.683C709.23 666.781 733.492 692.453 743.355 708.801C763.115 742.594 786.942 773.661 814.352 801.369C869.84 855.096 939.81 891.917 1017.01 908.015C1024.43 909.51 1027.98 897.834 1020.49 896.273L1020.35 896.415Z" fill="#FF725E"/>
    <path d="M1001.98 925.408C879.643 899.51 782.754 820.385 714.751 720.237C710.626 714.139 699.939 720.37 704.129 726.534C773.872 829.267 872.989 910.621 998.491 937.15C999.948 937.293 1001.45 936.893 1002.7 936.026C1003.96 935.16 1004.89 933.885 1005.32 932.443C1005.75 931.001 1005.64 929.49 1005.03 928.194C1004.41 926.899 1003.33 925.908 1001.98 925.408Z" fill="#FF725E"/>
    <path d="M931.426 1003.03C787.324 957.623 665.614 817.866 664.444 816.415L671.952 809.824C673.263 811.135 793.204 949.122 934.958 993.736L931.426 1003.03Z" fill="#FF725E"/>
    <path d="M680.154 763.746C701.297 807.697 732.553 845.51 771.55 874.315C777.502 878.717 783.733 868.029 777.851 863.557C740.622 835.876 710.861 799.556 690.846 757.379C687.628 750.636 676.654 757.285 680.154 763.746Z" fill="#FF725E"/>
    <path d="M646.904 792.671L650.449 797.907C650.843 798.588 651.406 799.151 652.087 799.545C652.674 800.035 653.386 800.36 654.158 800.489C654.878 800.686 655.653 800.682 656.4 800.475C657.18 800.472 657.956 800.204 658.601 799.715L659.799 798.517C660.569 797.74 661.121 796.779 661.395 795.742L661.656 794.17C661.723 793.144 661.5 792.14 661.015 791.273L657.47 786.037C657.072 785.358 656.51 784.796 655.832 784.398C655.245 783.908 654.532 783.584 653.761 783.455C653.025 783.232 652.228 783.214 651.453 783.403C650.683 783.491 649.931 783.75 649.252 784.163L648.054 785.361C647.301 786.135 646.732 787.064 646.393 788.071L646.131 789.643C646.092 790.695 646.336 791.719 646.838 792.605L646.904 792.671Z" fill="#FF725E"/>
    <path d="M501.59 760.004C502.363 786.292 508.604 811.735 519.92 834.728C520.286 835.437 520.795 836.056 521.416 836.551C522.037 837.046 522.758 837.406 523.539 837.61C524.32 837.815 525.145 837.861 525.967 837.745C526.789 837.629 527.592 837.353 528.329 836.934C529.067 836.514 529.726 835.96 530.267 835.301C530.808 834.642 531.222 833.892 531.484 833.094C531.747 832.296 531.853 831.466 531.797 830.65C531.74 829.835 531.523 829.05 531.156 828.341C520.673 807.256 514.841 783.903 514.029 759.754C513.768 752.02 501.732 752.392 501.993 760.125L501.59 760.004Z" fill="#FF725E"/>
    <path d="M877.082 478.22L884.481 483.927C885.005 484.489 885.665 484.908 886.406 485.148C887.469 485.578 888.662 485.662 889.826 485.389C890.989 485.116 892.067 484.499 892.914 483.62C894.081 482.43 894.792 480.877 894.907 479.268C894.933 478.483 894.803 477.713 894.526 477C894.249 476.288 893.83 475.647 893.292 475.116L885.893 469.409C885.415 468.795 884.74 468.367 883.968 468.188C883.278 467.887 882.516 467.752 881.741 467.794C880.957 467.826 880.175 468.012 879.44 468.341C878.705 468.671 878.032 469.138 877.46 469.716C876.874 470.282 876.401 470.954 876.07 471.69C875.74 472.426 875.559 473.212 875.538 473.998C875.471 474.793 875.574 475.581 875.84 476.31C876.106 477.038 876.53 477.689 877.082 478.22Z" fill="#FF725E"/>
    <path d="M510.561 331.638C485.703 345.541 462.163 361.878 440.318 380.387C439.619 380.938 439.035 381.624 438.605 382.399C438.174 383.174 437.907 384.019 437.822 384.88C437.736 385.74 437.834 386.595 438.109 387.389C438.383 388.182 438.828 388.896 439.414 389.482C440 390.068 440.714 390.513 441.507 390.787C442.301 391.062 443.156 391.16 444.017 391.074C444.877 390.989 445.723 390.722 446.497 390.291C447.272 389.861 447.958 389.277 448.509 388.578C469.527 370.85 492.177 355.228 516.094 341.964C523.16 338.174 517.295 327.656 510.561 331.638Z" fill="#FF725E"/>
    <path d="M139.957 479.439L152.022 450.336C152.272 448.864 151.981 447.391 151.203 446.194C150.426 444.997 149.216 444.157 147.802 443.833C146.387 443.509 144.864 443.724 143.52 444.436C142.176 445.148 141.104 446.308 140.504 447.699L128.439 476.802C128.189 478.274 128.48 479.746 129.257 480.944C130.035 482.141 131.244 482.981 132.659 483.305C134.074 483.629 135.597 483.414 136.941 482.702C138.285 481.99 139.357 480.83 139.957 479.439Z" fill="#FF725E"/>
    <path d="M923.356 414.385C942.358 424.67 959.346 438.087 973.662 454.117C978.97 459.425 987.434 450.83 982.474 445.306C967.473 428.499 949.658 414.444 929.723 403.692C928.372 403.124 926.82 403.096 925.371 403.614C923.921 404.132 922.677 405.159 921.882 406.494C921.087 407.829 920.797 409.377 921.07 410.836C921.342 412.295 922.157 413.56 923.356 414.385Z" fill="#FF725E"/>
    <path d="M852.655 328.598L869.99 337.475C871.335 338.194 872.948 338.33 874.479 337.855C876.01 337.379 877.335 336.33 878.166 334.935C879.002 333.516 879.268 331.864 878.904 330.338C878.54 328.812 877.576 327.536 876.221 326.788L858.886 317.911C857.535 317.177 855.907 317.032 854.361 317.509C852.815 317.986 851.477 319.045 850.643 320.453C849.808 321.862 849.543 323.504 849.908 325.02C850.274 326.535 851.238 327.799 852.589 328.533L852.655 328.598Z" fill="#FF725E"/>
</svg>
